# xmcd CD database file
#
# Track frame offsets:
#	150
#	17352
#	34930
#	55565
#	65390
#	74032
#	89785
#	110865
#	132155
#	139370
#	164187
#	175295
#	194550
#	211225
#	231672
#	245645
#
# Disc length: 3538 seconds
#
# Revision: 0
# Processed by: cddbd v1.5PL3 Copyright (c) Steve Scherf et al.
# Submitted via: CDex 1.51
#
DISCID=030dd010
DTITLE=carmen McRae - Live In tokyo
DYEAR=1986
DGENRE=Jazz
TTITLE0=That Old Black Magic
TTITLE1=I Get Along Without You Very Well
TTITLE2=Love Came On Stealthy Fingers
TTITLE3=Getting Some Fun Out Of Life
TTITLE4=Thou Swell
TTITLE5=My Old Flame
TTITLE6=Yesterdays
TTITLE7=Listen Here
TTITLE8=If I Were A Bell
TTITLE9=But Not For Me
TTITLE10=What A Little Moonlight Can Do
TTITLE11=That Old Devil Called Love
TTITLE12=As Long As I Live
TTITLE13=No More Blues
TTITLE14=Love Theme - A Star Is Born (Evergreen)
TTITLE15=With One More Look At You
EXTD=YEAR: 1986
EXTT0=
EXTT1=
EXTT2=
EXTT3=
EXTT4=
EXTT5=
EXTT6=
EXTT7=
EXTT8=
EXTT9=
EXTT10=
EXTT11=
EXTT12=
EXTT13=
EXTT14=
EXTT15=
PLAYORDER=
